<svg width="221" height="76" viewBox="0 0 221 76" fill="none" xmlns="http://www.w3.org/2000/svg">
<path d="M95.112 47.8C95.112 49.272 95.4427 50.5627 96.104 51.672C96.7867 52.76 97.672 53.6027 98.76 54.2C99.848 54.776 101.032 55.064 102.312 55.064C103.379 55.064 104.328 54.9253 105.16 54.648C105.992 54.3707 106.739 53.9973 107.4 53.528C108.083 53.0587 108.669 52.5467 109.16 51.992V57.144C108.243 57.8693 107.24 58.4347 106.152 58.84C105.085 59.2453 103.731 59.448 102.088 59.448C100.381 59.448 98.792 59.1707 97.32 58.616C95.8693 58.0613 94.6 57.2613 93.512 56.216C92.4453 55.1707 91.6133 53.944 91.016 52.536C90.44 51.1067 90.152 49.528 90.152 47.8C90.152 46.072 90.44 44.504 91.016 43.096C91.6133 41.6667 92.4453 40.4293 93.512 39.384C94.6 38.3387 95.8693 37.5387 97.32 36.984C98.792 36.4293 100.381 36.152 102.088 36.152C103.731 36.152 105.085 36.3547 106.152 36.76C107.24 37.1653 108.243 37.7307 109.16 38.456V43.608C108.669 43.0533 108.083 42.5413 107.4 42.072C106.739 41.6027 105.992 41.2293 105.16 40.952C104.328 40.6747 103.379 40.536 102.312 40.536C101.032 40.536 99.848 40.8347 98.76 41.432C97.672 42.008 96.7867 42.84 96.104 43.928C95.4427 45.016 95.112 46.3067 95.112 47.8ZM112.337 51.64C112.337 50.104 112.689 48.76 113.393 47.608C114.119 46.456 115.089 45.56 116.305 44.92C117.543 44.28 118.94 43.96 120.497 43.96C122.055 43.96 123.441 44.28 124.657 44.92C125.895 45.56 126.865 46.456 127.569 47.608C128.295 48.76 128.657 50.104 128.657 51.64C128.657 53.1547 128.295 54.4987 127.569 55.672C126.865 56.824 125.895 57.72 124.657 58.36C123.441 59 122.055 59.32 120.497 59.32C118.94 59.32 117.543 59 116.305 58.36C115.089 57.72 114.119 56.824 113.393 55.672C112.689 54.4987 112.337 53.1547 112.337 51.64ZM116.561 51.64C116.561 52.472 116.732 53.208 117.073 53.848C117.436 54.4667 117.916 54.9573 118.513 55.32C119.111 55.6613 119.772 55.832 120.497 55.832C121.223 55.832 121.884 55.6613 122.481 55.32C123.079 54.9573 123.548 54.4667 123.889 53.848C124.252 53.208 124.433 52.472 124.433 51.64C124.433 50.808 124.252 50.072 123.889 49.432C123.548 48.792 123.079 48.3013 122.481 47.96C121.884 47.6187 121.223 47.448 120.497 47.448C119.772 47.448 119.111 47.6187 118.513 47.96C117.916 48.3013 117.436 48.792 117.073 49.432C116.732 50.072 116.561 50.808 116.561 51.64ZM141.271 50.04C141.271 49.0587 141.079 48.312 140.695 47.8C140.311 47.288 139.692 47.032 138.839 47.032C138.263 47.032 137.751 47.16 137.303 47.416C136.855 47.6507 136.513 47.992 136.279 48.44C136.044 48.888 135.927 49.4213 135.927 50.04V59H131.767V44.28H135.927V46.52C136.375 45.688 136.961 45.0587 137.687 44.632C138.433 44.184 139.329 43.96 140.375 43.96C142.124 43.96 143.425 44.4613 144.279 45.464C145.132 46.4453 145.559 47.8213 145.559 49.592V59H141.271V50.04ZM153.706 34.04V59H149.546V34.04H153.706ZM165.802 51.64C165.802 53.2613 165.471 54.648 164.81 55.8C164.148 56.952 163.274 57.8267 162.186 58.424C161.119 59.0213 159.967 59.32 158.73 59.32C157.514 59.32 156.426 59.0107 155.466 58.392C154.527 57.7733 153.78 56.888 153.226 55.736C152.671 54.584 152.394 53.2187 152.394 51.64C152.394 50.04 152.671 48.6747 153.226 47.544C153.78 46.392 154.527 45.5067 155.466 44.888C156.426 44.2693 157.514 43.96 158.73 43.96C159.967 43.96 161.119 44.2587 162.186 44.856C163.274 45.4533 164.148 46.328 164.81 47.48C165.471 48.6107 165.802 49.9973 165.802 51.64ZM161.514 51.64C161.514 50.7653 161.332 50.008 160.97 49.368C160.607 48.728 160.116 48.2373 159.498 47.896C158.9 47.5547 158.239 47.384 157.514 47.384C156.895 47.384 156.287 47.5547 155.69 47.896C155.114 48.216 154.634 48.696 154.25 49.336C153.887 49.976 153.706 50.744 153.706 51.64C153.706 52.536 153.887 53.304 154.25 53.944C154.634 54.584 155.114 55.0747 155.69 55.416C156.287 55.736 156.895 55.896 157.514 55.896C158.239 55.896 158.9 55.7253 159.498 55.384C160.116 55.0427 160.607 54.552 160.97 53.912C161.332 53.272 161.514 52.5147 161.514 51.64ZM173.18 53.24C173.18 54.2 173.372 54.9467 173.756 55.48C174.14 55.992 174.758 56.248 175.612 56.248C176.209 56.248 176.721 56.1307 177.148 55.896C177.596 55.64 177.937 55.288 178.172 54.84C178.428 54.392 178.556 53.8587 178.556 53.24V44.28H182.684V59H178.556V56.76C178.086 57.592 177.489 58.232 176.764 58.68C176.038 59.1067 175.153 59.32 174.108 59.32C172.358 59.32 171.046 58.8187 170.172 57.816C169.318 56.8133 168.892 55.4373 168.892 53.688V44.28H173.18V53.24ZM186.575 38.584C186.575 37.9013 186.82 37.3467 187.311 36.92C187.801 36.472 188.388 36.248 189.071 36.248C189.753 36.248 190.329 36.472 190.799 36.92C191.289 37.3467 191.535 37.9013 191.535 38.584C191.535 39.2453 191.289 39.8 190.799 40.248C190.329 40.696 189.753 40.92 189.071 40.92C188.388 40.92 187.801 40.696 187.311 40.248C186.82 39.8 186.575 39.2453 186.575 38.584ZM187.023 44.28H191.055V59H187.023V44.28ZM195.454 34.04H199.614V59H195.454V34.04ZM214.808 34.04H218.968V59H214.808V34.04ZM202.712 51.64C202.712 49.9973 203.043 48.6107 203.704 47.48C204.366 46.328 205.24 45.4533 206.328 44.856C207.416 44.2587 208.568 43.96 209.784 43.96C211.022 43.96 212.11 44.2693 213.048 44.888C214.008 45.5067 214.755 46.392 215.288 47.544C215.843 48.6747 216.12 50.04 216.12 51.64C216.12 53.2187 215.843 54.584 215.288 55.736C214.755 56.888 214.008 57.7733 213.048 58.392C212.11 59.0107 211.022 59.32 209.784 59.32C208.568 59.32 207.416 59.0213 206.328 58.424C205.24 57.8267 204.366 56.952 203.704 55.8C203.043 54.648 202.712 53.2613 202.712 51.64ZM207 51.64C207 52.5147 207.182 53.272 207.544 53.912C207.907 54.552 208.398 55.0427 209.016 55.384C209.635 55.7253 210.296 55.896 211 55.896C211.619 55.896 212.216 55.736 212.792 55.416C213.39 55.0747 213.87 54.584 214.232 53.944C214.616 53.304 214.808 52.536 214.808 51.64C214.808 50.744 214.616 49.976 214.232 49.336C213.87 48.696 213.39 48.216 212.792 47.896C212.216 47.5547 211.619 47.384 211 47.384C210.296 47.384 209.635 47.5547 209.016 47.896C208.398 48.2373 207.907 48.728 207.544 49.368C207.182 50.008 207 50.7653 207 51.64Z" fill="white"/>
<path d="M93.298 24.126C92.6447 24.126 92.0707 24 91.576 23.748C91.0813 23.4867 90.694 23.1227 90.414 22.656C90.1433 22.18 90.008 21.634 90.008 21.018V17.168C90.008 16.5613 90.1433 16.0247 90.414 15.558C90.694 15.0913 91.0813 14.732 91.576 14.48C92.0707 14.2187 92.6447 14.088 93.298 14.088C93.9513 14.088 94.5253 14.214 95.02 14.466C95.5147 14.718 95.8973 15.0727 96.168 15.53C96.448 15.9873 96.588 16.5147 96.588 17.112C96.588 17.1587 96.574 17.196 96.546 17.224C96.518 17.252 96.4853 17.266 96.448 17.266L95.734 17.308C95.6407 17.308 95.594 17.266 95.594 17.182V17.14C95.594 16.4773 95.384 15.95 94.964 15.558C94.544 15.1567 93.9887 14.956 93.298 14.956C92.6073 14.956 92.052 15.1567 91.632 15.558C91.212 15.9593 91.002 16.4867 91.002 17.14V21.06C91.002 21.7133 91.212 22.2407 91.632 22.642C92.052 23.0433 92.6073 23.244 93.298 23.244C93.9887 23.244 94.544 23.048 94.964 22.656C95.384 22.2547 95.594 21.7227 95.594 21.06V21.032C95.594 20.948 95.6407 20.906 95.734 20.906L96.448 20.948C96.5413 20.948 96.588 20.99 96.588 21.074C96.588 21.6807 96.448 22.2173 96.168 22.684C95.8973 23.1413 95.5147 23.496 95.02 23.748C94.5253 24 93.9513 24.126 93.298 24.126ZM101.312 24.112C100.64 24.112 100.062 23.9393 99.5762 23.594C99.0909 23.2487 98.7549 22.7727 98.5682 22.166C98.4376 21.7367 98.3722 21.1627 98.3722 20.444C98.3722 19.7253 98.4376 19.156 98.5682 18.736C98.7456 18.1387 99.0769 17.6673 99.5622 17.322C100.048 16.9767 100.636 16.804 101.326 16.804C101.989 16.804 102.558 16.9767 103.034 17.322C103.52 17.6673 103.851 18.134 104.028 18.722C104.159 19.1233 104.224 19.6973 104.224 20.444C104.224 21.2 104.159 21.774 104.028 22.166C103.851 22.7727 103.52 23.2487 103.034 23.594C102.558 23.9393 101.984 24.112 101.312 24.112ZM101.312 23.244C101.76 23.244 102.143 23.1227 102.46 22.88C102.778 22.628 102.992 22.292 103.104 21.872C103.188 21.536 103.23 21.0647 103.23 20.458C103.23 19.842 103.193 19.3707 103.118 19.044C103.006 18.624 102.787 18.2927 102.46 18.05C102.143 17.798 101.756 17.672 101.298 17.672C100.841 17.672 100.454 17.798 100.136 18.05C99.8189 18.2927 99.6042 18.624 99.4922 19.044C99.4176 19.3707 99.3802 19.842 99.3802 20.458C99.3802 21.074 99.4176 21.5453 99.4922 21.872C99.5949 22.292 99.8049 22.628 100.122 22.88C100.449 23.1227 100.846 23.244 101.312 23.244ZM109.179 16.818C109.926 16.818 110.518 17.0373 110.957 17.476C111.405 17.9147 111.629 18.5027 111.629 19.24V23.86C111.629 23.9533 111.582 24 111.489 24H110.775C110.682 24 110.635 23.9533 110.635 23.86V19.436C110.635 18.9227 110.476 18.5027 110.159 18.176C109.851 17.8493 109.45 17.686 108.955 17.686C108.442 17.686 108.026 17.8447 107.709 18.162C107.392 18.4793 107.233 18.8947 107.233 19.408V23.86C107.233 23.9533 107.186 24 107.093 24H106.379C106.286 24 106.239 23.9533 106.239 23.86V17.056C106.239 16.9627 106.286 16.916 106.379 16.916H107.093C107.186 16.916 107.233 16.9627 107.233 17.056V17.658C107.233 17.6767 107.238 17.6907 107.247 17.7C107.266 17.7093 107.28 17.7047 107.289 17.686C107.7 17.1073 108.33 16.818 109.179 16.818ZM116.11 24.07C115.587 24.07 115.121 23.986 114.71 23.818C114.309 23.65 113.996 23.426 113.772 23.146C113.557 22.866 113.45 22.5533 113.45 22.208V22.04C113.45 21.9467 113.497 21.9 113.59 21.9H114.262C114.355 21.9 114.402 21.9467 114.402 22.04V22.152C114.402 22.46 114.561 22.7307 114.878 22.964C115.205 23.188 115.611 23.3 116.096 23.3C116.581 23.3 116.973 23.1927 117.272 22.978C117.571 22.754 117.72 22.474 117.72 22.138C117.72 21.9047 117.641 21.7133 117.482 21.564C117.333 21.4147 117.151 21.298 116.936 21.214C116.731 21.13 116.409 21.0227 115.97 20.892C115.447 20.7427 115.018 20.5933 114.682 20.444C114.346 20.2947 114.061 20.0893 113.828 19.828C113.604 19.5573 113.492 19.2167 113.492 18.806C113.492 18.2087 113.725 17.7327 114.192 17.378C114.659 17.0233 115.275 16.846 116.04 16.846C116.553 16.846 117.006 16.93 117.398 17.098C117.799 17.266 118.107 17.4993 118.322 17.798C118.537 18.0873 118.644 18.414 118.644 18.778V18.82C118.644 18.9133 118.597 18.96 118.504 18.96H117.846C117.753 18.96 117.706 18.9133 117.706 18.82V18.778C117.706 18.4607 117.552 18.1947 117.244 17.98C116.945 17.7653 116.539 17.658 116.026 17.658C115.55 17.658 115.167 17.756 114.878 17.952C114.589 18.1387 114.444 18.4 114.444 18.736C114.444 19.0533 114.584 19.296 114.864 19.464C115.144 19.632 115.578 19.8 116.166 19.968C116.707 20.1267 117.146 20.276 117.482 20.416C117.818 20.556 118.107 20.7613 118.35 21.032C118.593 21.2933 118.714 21.6387 118.714 22.068C118.714 22.6747 118.476 23.16 118 23.524C117.524 23.888 116.894 24.07 116.11 24.07ZM123.691 17.602C123.691 17.6953 123.644 17.742 123.551 17.742H121.969C121.931 17.742 121.913 17.7607 121.913 17.798V21.928C121.913 22.376 122.011 22.6933 122.207 22.88C122.412 23.0573 122.729 23.146 123.159 23.146H123.509C123.602 23.146 123.649 23.1927 123.649 23.286V23.86C123.649 23.9533 123.602 24 123.509 24C123.397 24.0093 123.224 24.014 122.991 24.014C122.319 24.014 121.81 23.888 121.465 23.636C121.119 23.384 120.947 22.9173 120.947 22.236V17.798C120.947 17.7607 120.928 17.742 120.891 17.742H120.037C119.943 17.742 119.897 17.6953 119.897 17.602V17.056C119.897 16.9627 119.943 16.916 120.037 16.916H120.891C120.928 16.916 120.947 16.8973 120.947 16.86V15.236C120.947 15.1427 120.993 15.096 121.087 15.096H121.773C121.866 15.096 121.913 15.1427 121.913 15.236V16.86C121.913 16.8973 121.931 16.916 121.969 16.916H123.551C123.644 16.916 123.691 16.9627 123.691 17.056V17.602ZM128.468 16.846C128.776 16.846 129.042 16.9067 129.266 17.028C129.341 17.0653 129.369 17.126 129.35 17.21L129.196 17.896C129.168 17.9893 129.108 18.0173 129.014 17.98C128.856 17.9147 128.674 17.882 128.468 17.882L128.286 17.896C127.801 17.9147 127.4 18.0967 127.082 18.442C126.765 18.778 126.606 19.2073 126.606 19.73V23.86C126.606 23.9533 126.56 24 126.466 24H125.752C125.659 24 125.612 23.9533 125.612 23.86V17.056C125.612 16.9627 125.659 16.916 125.752 16.916H126.466C126.56 16.916 126.606 16.9627 126.606 17.056V17.91C126.606 17.938 126.611 17.9567 126.62 17.966C126.639 17.966 126.653 17.9567 126.662 17.938C126.858 17.5927 127.106 17.3267 127.404 17.14C127.712 16.944 128.067 16.846 128.468 16.846ZM134.996 17.056C134.996 16.9627 135.042 16.916 135.136 16.916H135.85C135.943 16.916 135.99 16.9627 135.99 17.056V23.86C135.99 23.9533 135.943 24 135.85 24H135.136C135.042 24 134.996 23.9533 134.996 23.86V23.258C134.996 23.2393 134.986 23.2253 134.968 23.216C134.949 23.2067 134.935 23.2113 134.926 23.23C134.534 23.8087 133.913 24.098 133.064 24.098C132.616 24.098 132.2 24.0093 131.818 23.832C131.444 23.6453 131.146 23.3793 130.922 23.034C130.707 22.6887 130.6 22.2733 130.6 21.788V17.056C130.6 16.9627 130.646 16.916 130.74 16.916H131.454C131.547 16.916 131.594 16.9627 131.594 17.056V21.494C131.594 22.026 131.743 22.4507 132.042 22.768C132.34 23.076 132.746 23.23 133.26 23.23C133.792 23.23 134.212 23.0713 134.52 22.754C134.837 22.4367 134.996 22.0167 134.996 21.494V17.056ZM140.892 24.112C140.22 24.112 139.641 23.9393 139.156 23.594C138.68 23.2393 138.353 22.7633 138.176 22.166C138.054 21.7553 137.994 21.1767 137.994 20.43C137.994 19.758 138.054 19.1887 138.176 18.722C138.344 18.1433 138.67 17.6813 139.156 17.336C139.641 16.9813 140.22 16.804 140.892 16.804C141.573 16.804 142.161 16.9767 142.656 17.322C143.16 17.6673 143.486 18.0967 143.636 18.61C143.682 18.778 143.71 18.918 143.72 19.03V19.058C143.72 19.1233 143.678 19.1653 143.594 19.184L142.894 19.282H142.866C142.8 19.282 142.758 19.24 142.74 19.156L142.698 18.946C142.614 18.5913 142.408 18.2927 142.082 18.05C141.755 17.798 141.358 17.672 140.892 17.672C140.425 17.672 140.033 17.798 139.716 18.05C139.408 18.2927 139.207 18.6193 139.114 19.03C139.03 19.3847 138.988 19.856 138.988 20.444C138.988 21.06 139.03 21.536 139.114 21.872C139.207 22.292 139.408 22.628 139.716 22.88C140.033 23.1227 140.425 23.244 140.892 23.244C141.349 23.244 141.741 23.1273 142.068 22.894C142.404 22.6513 142.614 22.3433 142.698 21.97V21.914L142.712 21.858C142.721 21.7647 142.777 21.7273 142.88 21.746L143.566 21.858C143.659 21.8767 143.701 21.928 143.692 22.012L143.636 22.292C143.496 22.8333 143.174 23.272 142.67 23.608C142.166 23.944 141.573 24.112 140.892 24.112ZM148.669 17.602C148.669 17.6953 148.622 17.742 148.529 17.742H146.947C146.91 17.742 146.891 17.7607 146.891 17.798V21.928C146.891 22.376 146.989 22.6933 147.185 22.88C147.39 23.0573 147.708 23.146 148.137 23.146H148.487C148.58 23.146 148.627 23.1927 148.627 23.286V23.86C148.627 23.9533 148.58 24 148.487 24C148.375 24.0093 148.202 24.014 147.969 24.014C147.297 24.014 146.788 23.888 146.443 23.636C146.098 23.384 145.925 22.9173 145.925 22.236V17.798C145.925 17.7607 145.906 17.742 145.869 17.742H145.015C144.922 17.742 144.875 17.6953 144.875 17.602V17.056C144.875 16.9627 144.922 16.916 145.015 16.916H145.869C145.906 16.916 145.925 16.8973 145.925 16.86V15.236C145.925 15.1427 145.972 15.096 146.065 15.096H146.751C146.844 15.096 146.891 15.1427 146.891 15.236V16.86C146.891 16.8973 146.91 16.916 146.947 16.916H148.529C148.622 16.916 148.669 16.9627 148.669 17.056V17.602ZM151.263 15.628C151.039 15.628 150.852 15.5533 150.703 15.404C150.553 15.2547 150.479 15.068 150.479 14.844C150.479 14.6107 150.553 14.424 150.703 14.284C150.852 14.1347 151.039 14.06 151.263 14.06C151.487 14.06 151.673 14.1347 151.823 14.284C151.972 14.424 152.047 14.6107 152.047 14.844C152.047 15.068 151.972 15.2547 151.823 15.404C151.673 15.5533 151.487 15.628 151.263 15.628ZM150.871 23.986C150.777 23.986 150.731 23.9393 150.731 23.846V17.042C150.731 16.9487 150.777 16.902 150.871 16.902H151.585C151.678 16.902 151.725 16.9487 151.725 17.042V23.846C151.725 23.9393 151.678 23.986 151.585 23.986H150.871ZM156.861 24.112C156.189 24.112 155.61 23.9393 155.125 23.594C154.64 23.2487 154.304 22.7727 154.117 22.166C153.986 21.7367 153.921 21.1627 153.921 20.444C153.921 19.7253 153.986 19.156 154.117 18.736C154.294 18.1387 154.626 17.6673 155.111 17.322C155.596 16.9767 156.184 16.804 156.875 16.804C157.538 16.804 158.107 16.9767 158.583 17.322C159.068 17.6673 159.4 18.134 159.577 18.722C159.708 19.1233 159.773 19.6973 159.773 20.444C159.773 21.2 159.708 21.774 159.577 22.166C159.4 22.7727 159.068 23.2487 158.583 23.594C158.107 23.9393 157.533 24.112 156.861 24.112ZM156.861 23.244C157.309 23.244 157.692 23.1227 158.009 22.88C158.326 22.628 158.541 22.292 158.653 21.872C158.737 21.536 158.779 21.0647 158.779 20.458C158.779 19.842 158.742 19.3707 158.667 19.044C158.555 18.624 158.336 18.2927 158.009 18.05C157.692 17.798 157.304 17.672 156.847 17.672C156.39 17.672 156.002 17.798 155.685 18.05C155.368 18.2927 155.153 18.624 155.041 19.044C154.966 19.3707 154.929 19.842 154.929 20.458C154.929 21.074 154.966 21.5453 155.041 21.872C155.144 22.292 155.354 22.628 155.671 22.88C155.998 23.1227 156.394 23.244 156.861 23.244ZM164.728 16.818C165.475 16.818 166.067 17.0373 166.506 17.476C166.954 17.9147 167.178 18.5027 167.178 19.24V23.86C167.178 23.9533 167.131 24 167.038 24H166.324C166.231 24 166.184 23.9533 166.184 23.86V19.436C166.184 18.9227 166.025 18.5027 165.708 18.176C165.4 17.8493 164.999 17.686 164.504 17.686C163.991 17.686 163.575 17.8447 163.258 18.162C162.941 18.4793 162.782 18.8947 162.782 19.408V23.86C162.782 23.9533 162.735 24 162.642 24H161.928C161.835 24 161.788 23.9533 161.788 23.86V17.056C161.788 16.9627 161.835 16.916 161.928 16.916H162.642C162.735 16.916 162.782 16.9627 162.782 17.056V17.658C162.782 17.6767 162.787 17.6907 162.796 17.7C162.815 17.7093 162.829 17.7047 162.838 17.686C163.249 17.1073 163.879 16.818 164.728 16.818ZM177.248 18.89C177.201 18.918 177.201 18.946 177.248 18.974C177.752 19.1793 178.134 19.4827 178.396 19.884C178.657 20.2853 178.788 20.7707 178.788 21.34C178.788 22.18 178.517 22.8333 177.976 23.3C177.444 23.7667 176.739 24 175.862 24H172.474C172.38 24 172.334 23.9533 172.334 23.86V14.34C172.334 14.2467 172.38 14.2 172.474 14.2H175.764C176.669 14.2 177.378 14.424 177.892 14.872C178.414 15.32 178.676 15.95 178.676 16.762C178.676 17.2753 178.55 17.714 178.298 18.078C178.055 18.4327 177.705 18.7033 177.248 18.89ZM173.384 15.068C173.346 15.068 173.328 15.0867 173.328 15.124V18.484C173.328 18.5213 173.346 18.54 173.384 18.54H175.764C176.352 18.54 176.818 18.386 177.164 18.078C177.518 17.77 177.696 17.3593 177.696 16.846C177.696 16.3047 177.518 15.8753 177.164 15.558C176.818 15.2313 176.352 15.068 175.764 15.068H173.384ZM175.862 23.118C176.45 23.118 176.916 22.95 177.262 22.614C177.616 22.278 177.794 21.8253 177.794 21.256C177.794 20.6867 177.612 20.234 177.248 19.898C176.893 19.5527 176.412 19.38 175.806 19.38H173.384C173.346 19.38 173.328 19.3987 173.328 19.436V23.062C173.328 23.0993 173.346 23.118 173.384 23.118H175.862ZM185.008 17.056C185.008 16.9627 185.054 16.916 185.148 16.916H185.862C185.955 16.916 186.002 16.9627 186.002 17.056V23.86C186.002 23.9533 185.955 24 185.862 24H185.148C185.054 24 185.008 23.9533 185.008 23.86V23.258C185.008 23.2393 184.998 23.2253 184.98 23.216C184.961 23.2067 184.947 23.2113 184.938 23.23C184.546 23.8087 183.925 24.098 183.076 24.098C182.628 24.098 182.212 24.0093 181.83 23.832C181.456 23.6453 181.158 23.3793 180.934 23.034C180.719 22.6887 180.612 22.2733 180.612 21.788V17.056C180.612 16.9627 180.658 16.916 180.752 16.916H181.466C181.559 16.916 181.606 16.9627 181.606 17.056V21.494C181.606 22.026 181.755 22.4507 182.054 22.768C182.352 23.076 182.758 23.23 183.272 23.23C183.804 23.23 184.224 23.0713 184.532 22.754C184.849 22.4367 185.008 22.0167 185.008 21.494V17.056ZM188.901 15.628C188.677 15.628 188.491 15.5533 188.341 15.404C188.192 15.2547 188.117 15.068 188.117 14.844C188.117 14.6107 188.192 14.424 188.341 14.284C188.491 14.1347 188.677 14.06 188.901 14.06C189.125 14.06 189.312 14.1347 189.461 14.284C189.611 14.424 189.685 14.6107 189.685 14.844C189.685 15.068 189.611 15.2547 189.461 15.404C189.312 15.5533 189.125 15.628 188.901 15.628ZM188.509 23.986C188.416 23.986 188.369 23.9393 188.369 23.846V17.042C188.369 16.9487 188.416 16.902 188.509 16.902H189.223C189.317 16.902 189.363 16.9487 189.363 17.042V23.846C189.363 23.9393 189.317 23.986 189.223 23.986H188.509ZM191.938 24C191.844 24 191.798 23.9533 191.798 23.86V14.34C191.798 14.2467 191.844 14.2 191.938 14.2H192.652C192.745 14.2 192.792 14.2467 192.792 14.34V23.86C192.792 23.9533 192.745 24 192.652 24H191.938ZM199.42 14.34C199.42 14.2467 199.467 14.2 199.56 14.2H200.274C200.368 14.2 200.414 14.2467 200.414 14.34V23.86C200.414 23.9533 200.368 24 200.274 24H199.56C199.467 24 199.42 23.9533 199.42 23.86V23.272C199.42 23.2533 199.411 23.244 199.392 23.244C199.383 23.2347 199.369 23.2393 199.35 23.258C199.145 23.5287 198.888 23.7387 198.58 23.888C198.282 24.0373 197.946 24.112 197.572 24.112C196.919 24.112 196.368 23.944 195.92 23.608C195.482 23.272 195.178 22.8147 195.01 22.236C194.88 21.816 194.814 21.2233 194.814 20.458C194.814 19.6833 194.87 19.1047 194.982 18.722C195.15 18.1247 195.458 17.658 195.906 17.322C196.354 16.9767 196.91 16.804 197.572 16.804C197.936 16.804 198.272 16.8787 198.58 17.028C198.888 17.168 199.145 17.3733 199.35 17.644C199.369 17.6627 199.383 17.672 199.392 17.672C199.411 17.6627 199.42 17.6487 199.42 17.63V14.34ZM199.168 22.166C199.252 21.9793 199.313 21.76 199.35 21.508C199.388 21.256 199.406 20.906 199.406 20.458C199.406 20.01 199.388 19.66 199.35 19.408C199.313 19.1467 199.248 18.918 199.154 18.722C199.042 18.4047 198.856 18.1527 198.594 17.966C198.342 17.77 198.039 17.672 197.684 17.672C197.311 17.672 196.989 17.7653 196.718 17.952C196.448 18.1387 196.252 18.386 196.13 18.694C196.018 18.8993 195.934 19.1327 195.878 19.394C195.832 19.646 195.808 20.0007 195.808 20.458C195.808 20.8967 195.827 21.242 195.864 21.494C195.902 21.7367 195.967 21.956 196.06 22.152C196.172 22.488 196.368 22.754 196.648 22.95C196.938 23.146 197.278 23.244 197.67 23.244C198.044 23.244 198.356 23.146 198.608 22.95C198.86 22.754 199.047 22.4927 199.168 22.166ZM203.339 15.628C203.115 15.628 202.928 15.5533 202.779 15.404C202.63 15.2547 202.555 15.068 202.555 14.844C202.555 14.6107 202.63 14.424 202.779 14.284C202.928 14.1347 203.115 14.06 203.339 14.06C203.563 14.06 203.75 14.1347 203.899 14.284C204.048 14.424 204.123 14.6107 204.123 14.844C204.123 15.068 204.048 15.2547 203.899 15.404C203.75 15.5533 203.563 15.628 203.339 15.628ZM202.947 23.986C202.854 23.986 202.807 23.9393 202.807 23.846V17.042C202.807 16.9487 202.854 16.902 202.947 16.902H203.661C203.754 16.902 203.801 16.9487 203.801 17.042V23.846C203.801 23.9393 203.754 23.986 203.661 23.986H202.947ZM209.175 16.818C209.922 16.818 210.515 17.0373 210.953 17.476C211.401 17.9147 211.625 18.5027 211.625 19.24V23.86C211.625 23.9533 211.579 24 211.485 24H210.771C210.678 24 210.631 23.9533 210.631 23.86V19.436C210.631 18.9227 210.473 18.5027 210.155 18.176C209.847 17.8493 209.446 17.686 208.951 17.686C208.438 17.686 208.023 17.8447 207.705 18.162C207.388 18.4793 207.229 18.8947 207.229 19.408V23.86C207.229 23.9533 207.183 24 207.089 24H206.375C206.282 24 206.235 23.9533 206.235 23.86V17.056C206.235 16.9627 206.282 16.916 206.375 16.916H207.089C207.183 16.916 207.229 16.9627 207.229 17.056V17.658C207.229 17.6767 207.234 17.6907 207.243 17.7C207.262 17.7093 207.276 17.7047 207.285 17.686C207.696 17.1073 208.326 16.818 209.175 16.818ZM218.15 17.056C218.15 16.9627 218.197 16.916 218.29 16.916H219.004C219.097 16.916 219.144 16.9627 219.144 17.056V23.762C219.144 24.8073 218.841 25.5727 218.234 26.058C217.637 26.5433 216.811 26.786 215.756 26.786C215.541 26.786 215.378 26.7813 215.266 26.772C215.173 26.7627 215.126 26.7113 215.126 26.618L215.154 25.974C215.154 25.9273 215.168 25.89 215.196 25.862C215.224 25.8433 215.257 25.8387 215.294 25.848L215.672 25.862C216.54 25.862 217.17 25.6893 217.562 25.344C217.954 25.008 218.15 24.4713 218.15 23.734V23.216C218.15 23.1973 218.141 23.188 218.122 23.188C218.113 23.1787 218.099 23.1833 218.08 23.202C217.651 23.762 217.039 24.042 216.246 24.042C215.639 24.042 215.098 23.8787 214.622 23.552C214.155 23.2253 213.843 22.7633 213.684 22.166C213.572 21.7833 213.516 21.214 213.516 20.458C213.516 20.0473 213.525 19.702 213.544 19.422C213.572 19.142 213.623 18.89 213.698 18.666C213.866 18.106 214.169 17.658 214.608 17.322C215.047 16.9767 215.574 16.804 216.19 16.804C217.021 16.804 217.651 17.0793 218.08 17.63C218.099 17.6487 218.113 17.6533 218.122 17.644C218.141 17.6347 218.15 17.6207 218.15 17.602V17.056ZM218.08 21.858C218.108 21.718 218.127 21.5453 218.136 21.34C218.145 21.1347 218.15 20.836 218.15 20.444C218.15 19.968 218.145 19.6507 218.136 19.492C218.127 19.324 218.103 19.17 218.066 19.03C217.991 18.638 217.805 18.316 217.506 18.064C217.217 17.8027 216.848 17.672 216.4 17.672C215.961 17.672 215.588 17.798 215.28 18.05C214.981 18.302 214.771 18.6287 214.65 19.03C214.557 19.3287 214.51 19.7953 214.51 20.43C214.51 21.1113 214.557 21.5827 214.65 21.844C214.743 22.236 214.944 22.5627 215.252 22.824C215.569 23.076 215.952 23.202 216.4 23.202C216.857 23.202 217.231 23.076 217.52 22.824C217.819 22.572 218.005 22.25 218.08 21.858Z" fill="white"/>
<mask id="mask0_11_12" style="mask-type:alpha" maskUnits="userSpaceOnUse" x="0" y="0" width="86" height="76">
<path d="M80.4678 38L79 36L73.5 28L60.5 7L31.5 0L15 19L8 34.5L7 36L6.53801 39.0654L0 40.1308L5.02924 67.4766L27.6608 76H51.8012L76.4444 69.6075L86 41.1963L80.4678 38Z" fill="#D9D9D9"/>
</mask>
<g mask="url(#mask0_11_12)">
<path fill-rule="evenodd" clip-rule="evenodd" d="M50.7178 22.1039C51.8173 22.1039 52.9201 22.1039 54.0196 22.1039C54.0196 20.3288 54.0196 18.5503 54.0196 16.7752C52.9333 16.7616 51.8437 16.748 50.7541 16.7345C50.4866 17.342 50.6352 21.2384 50.7178 22.1039ZM78.4801 10.8152C73.2532 -0.392172 64.7343 -8.04927 51.6753 -11.2092C49.3012 -11.7828 46.6597 -11.8676 43.8795 -12C42.5225 -11.9084 41.1654 -11.8167 39.8083 -11.7251C37.1007 -11.2194 34.446 -10.8732 32.1314 -9.94657C30.1305 -9.14556 28.0007 -8.45656 26.2177 -7.38063C17.4545 -2.09601 11.9073 4.21023 8.01437 14.5249C7.20541 16.6666 6.85541 19.0628 6.40305 21.5507C5.41248 26.9643 6.40635 33.3995 7.67098 37.5776C11.204 49.2703 18.8512 57.4942 29.404 61.971C31.5239 62.8705 33.7625 63.5799 36.239 64.1806C37.4805 64.4827 38.7022 64.4929 40.0394 64.7338C41.2578 64.9545 44.0281 65.2158 45.4545 64.9714C46.5409 64.8934 47.6305 64.8119 48.7201 64.7338C50.7343 64.3571 52.6989 64.1229 54.5182 63.5493C62.6013 61.0003 68.997 56.6423 73.6428 50.5635C75.3301 48.3539 77.0801 45.9882 78.2522 43.2628C79.4937 40.3676 80.5008 37.3502 81.2471 33.8679C82.9872 25.7187 81.1084 16.4528 78.4801 10.8152ZM46.3758 51.3543C44.2956 51.7209 41.8654 51.4188 40.155 50.8791C37.7248 50.1121 35.7899 48.7442 33.1649 48.2725C30.9031 47.8652 28.6842 49.2601 26.1385 48.8257C24.2036 48.4931 22.6319 47.872 20.8785 47.5224C20.0564 47.3594 19.013 47.4884 18.2304 47.6004C17.2134 47.7498 16.005 47.3594 15.2356 47.1252C15.2224 47.0981 15.2092 47.0709 15.196 47.0472C15.5427 47.0336 15.8861 47.02 16.2328 47.0065C17.3191 46.8164 18.3988 46.6399 19.3828 46.4159C19.7295 46.3887 20.0729 46.3616 20.4196 46.3378C22.0078 46.443 23.1833 46.942 24.4908 47.2848C25.3097 47.4986 26.155 47.4884 27.063 47.6412C27.4988 47.614 27.9347 47.5868 28.3672 47.5631C30.1602 47.2644 32.6729 46.7146 34.4328 47.2067C36.9588 47.9161 38.7748 49.3484 41.2281 50.129C43.3545 50.8045 46.0555 50.8893 48.5616 51.154C48.0663 51.4697 47.0262 51.2389 46.3758 51.3543ZM12.2771 42.5127C12.2771 42.4991 12.2771 42.4855 12.2771 42.4719C12.4818 42.326 12.888 42.4142 13.1587 42.3124C14.9616 42.3328 16.213 43.4426 18.1116 43.1406C20.8984 42.6993 25.1413 41.8542 28.1724 42.4685C28.1724 42.4821 28.1724 42.4957 28.1724 42.5093C26.8814 42.6009 25.587 42.6926 24.2927 42.7842C22.1927 43.1643 19.079 44.1995 16.6884 43.7719C15.0507 43.48 13.8785 42.774 12.2771 42.5127ZM59.1277 49.1413C56.8791 49.5385 55.0465 50.163 52.7913 49.2601C50.2951 48.2589 48.2975 46.7485 45.4578 46.0222C42.9451 45.3807 40.013 46.5483 37.5465 45.9034C35.8559 45.4621 34.7828 44.376 32.9767 44.0468C31.2432 43.7312 29.7771 44.4846 28.4828 44.7969C26.8286 45.194 24.5403 45.0854 22.7606 44.9157C22.7474 44.8885 22.7342 44.8614 22.721 44.8376C25.7191 44.7833 28.0503 44.1283 30.3253 43.4155C30.8503 43.3103 31.3753 43.2051 31.9003 43.0998C35.0965 43.0964 35.8956 44.2267 38.3522 44.7562C39.3229 44.9666 40.7692 44.8274 41.6541 44.6781C43.1003 44.4371 44.8998 44.5559 46.1083 44.875C47.6371 45.2789 49.1229 45.8626 50.3711 46.6127C51.5597 47.3289 52.7946 48.1774 54.2112 48.6254C55.8423 49.1413 57.6748 48.3913 59.5107 48.7035C60.3131 48.8393 61.3201 48.9682 62.0069 49.0192C61.7593 49.2466 59.7088 49.0395 59.1277 49.1413ZM77.8659 41.8406C77.3772 42.0646 76.3503 41.9187 75.7164 41.9187C74.0654 41.9187 72.4145 41.9187 70.7635 41.9187C65.2098 41.9187 59.6527 41.9187 54.0989 41.9187C51.6555 41.9459 49.2088 41.973 46.7654 41.9968C47.0593 42.0748 47.3531 42.1563 47.647 42.2343C48.5847 42.6484 49.463 43.0455 50.6814 43.2594C53.2305 43.7074 55.6112 42.4075 58.2064 42.9437C61.3564 43.5954 63.4565 45.1499 66.3093 45.9814C68.7362 46.6908 72.0348 46.2631 74.8711 46.4159C74.8711 46.4702 74.8711 46.5211 74.8711 46.5754C71.7211 47.3085 67.4352 47.1931 64.6187 46.3005C62.6178 45.6658 60.8182 44.7222 58.6654 44.169C56.0536 43.5004 53.3758 44.7426 50.5626 44.2097C48.0729 43.7345 46.3692 42.3905 43.8432 41.9594C41.4625 41.9594 39.0819 41.9594 36.7012 41.9594C31.1078 41.9459 25.5144 41.9323 19.921 41.9187C18.1281 41.9187 16.3384 41.9187 14.5455 41.9187C13.0861 41.9051 11.6266 41.8915 10.1672 41.878C10.1144 41.7456 10.0648 41.6132 10.012 41.4843C10.012 41.3926 10.012 41.301 10.012 41.2093C10.4842 41.1822 10.9597 41.155 11.4318 41.1313C33.5875 41.1414 56.0041 41.1618 77.8626 41.172C77.965 41.3824 77.922 41.6064 77.8659 41.8406ZM14.0833 37.5369C14.6578 37.3129 15.2356 37.0889 15.8101 36.8649C16.6422 36.3659 17.4743 35.8636 18.3064 35.3647C18.8578 35.1203 19.505 35.1373 20.1125 34.8895C20.6375 34.8895 21.1625 34.8895 21.6875 34.8895C21.7139 34.9302 21.7403 34.9676 21.7635 35.0083C21.7767 35.8365 21.7899 36.6646 21.8031 37.4962C21.255 37.7541 20.271 37.5064 19.6139 37.615C17.5337 37.951 16.1568 38.3006 14.1625 37.6557C14.1328 37.615 14.1097 37.5776 14.0833 37.5369ZM55.4791 16.6971C57.1564 18.7743 58.8338 20.8549 60.5079 22.9321C61.4159 24.0488 62.3272 25.1688 63.2352 26.2889C63.2352 30.7487 63.2352 35.2086 63.2352 39.6684C60.9569 39.6956 58.6786 39.7227 56.4003 39.7465C56.1097 39.0812 56.4069 37.9883 56.2847 37.1398C56.2847 35.2968 56.2847 33.4572 56.2847 31.6142C56.2715 30.9965 56.2583 30.3787 56.2451 29.7576C56.0272 29.4759 54.8154 29.6388 54.363 29.6388C52.5569 29.6388 50.7541 29.6388 48.9479 29.6388C48.9347 32.9922 48.9215 36.349 48.9083 39.7057C46.5805 39.7193 44.2493 39.7329 41.9182 39.7465C41.8125 39.5089 41.8951 39.1355 41.8423 38.7995C41.8291 36.8513 41.8158 34.9031 41.8026 32.9583C41.8026 30.8539 41.8026 28.7462 41.8026 26.6418C45.4116 22.2091 49.0206 17.7731 52.6328 13.3404C52.6593 13.3404 52.6857 13.3404 52.7088 13.3404C53.7753 14.1685 54.6536 15.6144 55.4791 16.6971ZM53.597 12.037C54.1913 12.1966 56.3013 15.0001 56.7833 15.628C58.114 17.2605 59.4447 18.8897 60.7753 20.5223C61.1715 21.0382 61.8385 21.5507 62.1588 22.1005C62.7135 23.0577 64.2126 24.9957 65.0381 25.6542C65.0381 25.6949 65.0381 25.7322 65.0381 25.773C64.873 25.7865 64.7046 25.8001 64.5395 25.8137C63.0107 24.3101 61.7098 22.4366 60.3923 20.7225C59.0715 19.0017 57.5395 17.4676 56.2847 15.6687C55.7465 14.9016 53.7258 12.872 53.597 12.037ZM55.172 33.2739C54.9409 33.2875 54.7097 33.3011 54.4819 33.3146C54.3763 33.0872 54.3961 32.6358 54.406 32.2896C54.5612 32.2489 54.713 32.2116 54.8682 32.1708C54.9838 32.1708 55.0994 32.1708 55.2149 32.1708C55.3206 32.3982 55.3008 32.8497 55.2909 33.1959C55.248 33.223 55.2083 33.2468 55.172 33.2739ZM55.2876 34.8929C55.0201 34.9065 54.7494 34.9201 54.4819 34.9336C54.3663 34.6893 54.363 34.0342 54.4819 33.7898C54.7395 33.7898 54.9937 33.7898 55.2513 33.7898C55.2612 34.1564 55.2744 34.5263 55.2876 34.8929ZM55.2876 31.5769C55.248 31.604 55.2116 31.6312 55.172 31.6549C54.9541 31.6549 54.7362 31.6549 54.5182 31.6549C54.3003 31.5124 54.3729 31.2103 54.4027 30.9048C54.4423 30.8505 54.4786 30.7996 54.5182 30.7453C54.7494 30.7453 54.9805 30.7453 55.2083 30.7453C55.2975 30.9354 55.2975 31.2782 55.2876 31.5769ZM54.4786 35.3681C54.7229 35.3681 54.964 35.3681 55.2083 35.3681C55.3173 35.6023 55.2942 36.0774 55.2843 36.4338C55.0168 36.4746 54.7461 36.5119 54.4786 36.5526C54.4522 36.5119 54.4258 36.4746 54.4027 36.4338C54.3895 36.1318 54.3762 35.8297 54.363 35.5276C54.4027 35.4733 54.4423 35.419 54.4786 35.3681ZM54.4786 38.1309C54.373 37.9035 54.3928 37.4521 54.4027 37.1059C54.4654 37.0651 54.5314 37.0278 54.5942 36.9871C54.7989 36.9871 55.0036 36.9871 55.2083 36.9871C55.347 37.279 55.3074 37.6625 55.2843 38.0528C55.106 38.1411 54.7725 38.1411 54.4786 38.1309ZM55.2876 39.5903C55.106 39.6786 54.7725 39.6786 54.4819 39.6684C54.3465 39.4478 54.3069 38.8742 54.4423 38.6027C54.7097 38.6027 54.9805 38.6027 55.2479 38.6027C55.2612 38.9319 55.2744 39.2611 55.2876 39.5903ZM53.8281 33.3146C53.5343 33.3282 53.2404 33.3418 52.9465 33.3554C52.8376 33.128 52.8244 32.4967 52.9069 32.2116C53.2272 32.2116 53.5475 32.2116 53.8678 32.2116C53.9734 32.439 53.9536 32.8904 53.9437 33.2366C53.9041 33.2603 53.8645 33.2875 53.8281 33.3146ZM53.9041 34.8929C53.5838 34.9201 53.2635 34.9472 52.9432 34.971C52.8244 34.7198 52.8211 34.0376 52.9432 33.7864C53.2371 33.8 53.531 33.8136 53.8248 33.8272C53.9734 33.9867 53.9173 34.5942 53.9041 34.8929ZM53.9437 31.6176C53.7159 31.7296 53.2536 31.7058 52.9069 31.6957C52.8211 31.509 52.8211 31.1662 52.831 30.8675C52.8937 30.8268 52.9597 30.7894 53.0225 30.7487C53.3031 30.7623 53.5871 30.7759 53.8678 30.7894C53.8942 30.8302 53.9206 30.8675 53.9437 30.9082C53.9437 31.1424 53.9437 31.38 53.9437 31.6176ZM52.9069 35.4054C53.214 35.4054 53.5211 35.4054 53.8281 35.4054C53.9371 35.6396 53.914 36.1148 53.9041 36.4712C53.6829 36.5798 53.2437 36.5594 52.9069 36.5492C52.788 36.3048 52.7847 35.6498 52.9069 35.4054ZM52.9432 38.1682C52.8277 37.9238 52.8244 37.2688 52.9432 37.0244C53.2635 37.0244 53.5838 37.0244 53.9041 37.0244C54.0097 37.2518 53.9899 37.7032 53.98 38.0494C53.7324 38.175 53.3163 38.1818 52.9432 38.1682ZM53.98 39.5903C53.7951 39.6854 53.1413 39.7533 52.9432 39.6684C52.7649 39.5428 52.788 38.8844 52.8673 38.6434C53.2272 38.657 53.5838 38.6705 53.9437 38.6841C53.9536 38.9862 53.9668 39.2883 53.98 39.5903ZM51.3682 38.6841C51.6621 38.6841 51.956 38.6841 52.2498 38.6841C52.3456 38.8878 52.3357 39.2747 52.3258 39.5903C52.1211 39.7193 51.7645 39.7227 51.4045 39.7091C51.3088 39.4987 51.289 38.9489 51.3682 38.6841ZM51.4078 37.0244C51.6753 37.0244 51.9461 37.0244 52.2135 37.0244C52.2399 37.0651 52.2663 37.1025 52.2895 37.1432C52.3027 37.4588 52.3159 37.7745 52.3291 38.0902C52.1145 38.2089 51.7711 38.2225 51.4078 38.2089C51.289 37.9578 51.2857 37.2756 51.4078 37.0244ZM52.3291 36.4338C52.2895 36.461 52.2531 36.4881 52.2135 36.5119C51.9328 36.5255 51.6489 36.539 51.3682 36.5526C51.2461 36.2947 51.2824 35.6634 51.4078 35.4088C51.6753 35.4224 51.9461 35.436 52.2135 35.4495C52.3984 35.5751 52.3423 36.1148 52.3291 36.4338ZM51.4078 33.352C51.2857 33.1449 51.2692 32.5476 51.3682 32.2082C51.6885 32.2217 52.0088 32.2353 52.3291 32.2489C52.3291 32.5917 52.3291 32.9345 52.3291 33.2739C52.1244 33.3757 51.7248 33.3656 51.4078 33.352ZM52.3291 34.8522C52.1244 34.954 51.5895 34.971 51.3319 34.8929C51.3319 34.5637 51.3319 34.2345 51.3319 33.9052C51.3715 33.8645 51.4078 33.8272 51.4475 33.7864C51.705 33.7864 51.9593 33.7864 52.2168 33.7864C52.2432 33.8272 52.2696 33.8645 52.2928 33.9052C52.3027 34.2209 52.3159 34.5365 52.3291 34.8522ZM51.3682 31.6957C51.2626 31.5158 51.2395 31.2748 51.2527 30.9456C51.2923 30.8913 51.3286 30.8404 51.3682 30.786C51.6621 30.786 51.956 30.786 52.2498 30.786C52.2762 30.8268 52.3027 30.8641 52.3258 30.9048C52.339 31.1288 52.3522 31.3529 52.3654 31.5769C52.1508 31.7126 51.7479 31.7092 51.3682 31.6957ZM50.8333 34.8929C50.6451 34.9846 50.2885 34.9812 49.988 34.971C49.8791 34.7368 49.9022 34.2616 49.9121 33.9052C49.9649 33.8645 50.0145 33.8272 50.0673 33.7864C50.2984 33.8 50.5295 33.8136 50.7574 33.8272C50.863 34.0614 50.8432 34.5365 50.8333 34.8929ZM50.8333 36.4712C50.6517 36.5594 50.3182 36.5594 50.0277 36.5492C50.0012 36.5085 49.9748 36.4712 49.9517 36.4304C49.9385 36.1419 49.9253 35.85 49.9121 35.5615C49.9517 35.5208 49.988 35.4835 50.0277 35.4428C50.272 35.4428 50.513 35.4428 50.7574 35.4428C50.8663 35.6803 50.8861 36.1962 50.8333 36.4712ZM50.7541 38.1309C50.5097 38.1445 50.2687 38.158 50.0244 38.1716C49.9979 38.1173 49.9715 38.0664 49.9484 38.0121C49.9352 37.7372 49.922 37.4588 49.9088 37.1839C49.9484 37.1296 49.9847 37.0787 50.0244 37.0244C50.2687 37.0244 50.5097 37.0244 50.7541 37.0244C50.7805 37.0787 50.8069 37.1296 50.83 37.1839C50.8432 37.4724 50.8564 37.7643 50.8696 38.0528C50.8333 38.0766 50.7937 38.1037 50.7541 38.1309ZM50.8696 39.5903C50.6781 39.7125 50.3711 39.7227 50.0244 39.7091C49.9121 39.5259 49.8626 39.1253 49.9484 38.8402C50.0012 38.7758 50.0508 38.7079 50.1036 38.6434C50.3479 38.6332 50.6187 38.6298 50.7574 38.7215C50.7838 38.7486 50.8102 38.7758 50.8333 38.7995C50.8432 39.0643 50.8564 39.3256 50.8696 39.5903ZM50.0244 33.352C49.8758 33.0737 49.8758 32.5069 50.0244 32.2082C50.2918 32.2217 50.5626 32.2353 50.83 32.2489C50.8432 32.5781 50.8564 32.9074 50.8696 33.2366C50.6781 33.3554 50.3711 33.369 50.0244 33.352ZM50.064 30.7487C50.2819 30.7623 50.4998 30.7759 50.7178 30.7894C50.7574 30.803 50.7937 30.8166 50.8333 30.8302C50.8333 31.0949 50.8333 31.3563 50.8333 31.621C50.6451 31.7262 50.3942 31.7534 50.064 31.7398C50.0508 31.7398 50.0376 31.7398 50.0244 31.7398C49.8626 31.4716 49.8857 30.9863 50.064 30.7487ZM37.4673 23.5261C37.4541 23.5125 37.4408 23.4989 37.4276 23.4853C37.4276 23.4718 37.4276 23.4582 37.4276 23.4446C38.2696 23.1391 39.5772 23.5939 40.4621 23.2477C40.9871 23.2613 41.5121 23.2749 42.0371 23.2885C42.1526 23.3631 42.1031 23.2953 42.1526 23.448C42.113 23.5532 42.0767 23.6584 42.0371 23.7636C41.2116 24.249 38.3224 23.655 37.4673 23.5261ZM36.5857 18.7506C37.4706 18.5096 38.4248 18.3263 39.4649 18.16C40.221 18.1193 40.9739 18.0819 41.73 18.0412C43.1498 18.0683 44.5729 18.0955 45.9927 18.1193C46.0192 18.1193 46.0456 18.1193 46.0687 18.1193C46.0291 18.4451 45.8541 18.7879 45.6064 18.9101C44.7248 18.9237 43.8399 18.9372 42.9583 18.9508C40.8352 18.9101 38.7088 18.8727 36.5824 18.832C36.5857 18.8015 36.5857 18.7743 36.5857 18.7506ZM35.9715 17.0908C35.9715 17.0773 35.9715 17.0637 35.9715 17.0501C36.6319 16.3306 39.7324 16.3611 41.1158 16.3407C41.6904 16.3272 42.2682 16.3136 42.8427 16.3C44.3781 16.3136 45.9135 16.3272 47.4522 16.3407C47.4786 16.3407 47.505 16.3407 47.5281 16.3407C47.5281 16.3815 47.5281 16.4188 47.5281 16.4595C47.3861 16.67 47.2475 16.8804 47.1055 17.0908C46.8942 17.2368 44.7446 17.2707 44.3418 17.2096C41.5517 17.1689 38.7616 17.1316 35.9715 17.0908ZM47.1847 13.3404C47.1715 13.3132 47.1583 13.2861 47.1451 13.2623C47.7097 13.096 48.1258 12.7702 48.7201 12.5122C49.4036 12.5122 50.0607 12.5495 50.6022 12.631C50.3611 14.1787 48.3503 13.0858 47.1847 13.3404ZM48.3734 14.4876C48.6045 14.5011 48.8357 14.5147 49.0635 14.5283C48.6607 15.8045 47.1484 15.4753 45.5701 15.4753C42.4201 15.4753 39.389 15.5737 36.239 15.5533C36.2257 15.5397 36.2125 15.5262 36.1993 15.5126C36.1993 15.4583 36.1993 15.4074 36.1993 15.3531C36.2257 15.3531 36.2522 15.3531 36.2753 15.3531C36.8795 14.9695 38.0583 15.1732 38.8475 15.0374C40.9541 14.6776 43.2192 14.8813 45.4512 14.5249C46.4286 14.5113 47.4027 14.4978 48.3734 14.4876ZM36.3941 12.4715C36.3182 12.7328 33.5116 16.1099 33.2838 16.222C33.2705 16.222 33.2573 16.222 33.2441 16.222C33.2441 14.2093 33.2441 12.1966 33.2441 10.1838C33.2838 10.1431 33.3201 10.1058 33.3597 10.0651C34.3338 10.0651 35.3045 10.0651 36.2786 10.0651C36.4734 10.4011 36.5493 11.9386 36.3941 12.4715ZM38.5833 19.6975C39.6201 19.6704 40.6569 19.6432 41.6937 19.6195C42.7569 19.633 43.8201 19.6466 44.88 19.6602C44.5399 20.8787 42.7833 20.5291 41.3074 20.5291C37.771 20.5291 34.1588 20.4408 30.8239 20.3695C30.8239 20.356 30.8239 20.3424 30.8239 20.3288C33.0724 19.6602 36.0706 20.0946 38.5833 19.6975ZM36.7772 21.3946C38.0055 21.381 39.2338 21.3674 40.4621 21.3538C41.4989 21.3538 42.5357 21.3538 43.5725 21.3538C43.3545 21.6559 43.1366 21.958 42.9187 22.2601C38.0418 22.2601 33.1649 22.2601 28.288 22.2601C28.2748 22.2329 28.2616 22.2058 28.2484 22.182C28.7304 21.9546 29.4073 21.9851 30.0149 21.8663C32.029 21.4726 34.5022 21.4658 36.7772 21.3946ZM40.6932 27.0763C40.9871 27.7517 40.7692 29.873 40.7692 30.786C40.7692 33.7321 40.7692 36.6816 40.7692 39.6277C40.1055 39.9365 36.7375 39.7125 35.7767 39.7057C35.572 39.2407 35.7899 38.4431 35.7007 37.8492C35.7007 36.349 35.7007 34.8488 35.7007 33.3486C35.7007 32.534 35.7007 31.716 35.7007 30.9014C35.9187 30.6774 36.1366 30.4534 36.3545 30.2294C36.8399 29.6083 37.4507 29.0652 37.814 28.3355C37.7875 28.2812 37.7611 28.2303 37.738 28.176C36.9291 27.9655 35.6974 28.0572 34.7036 28.0572C32.6036 28.0708 30.5036 28.0843 28.4069 28.0979C27.5352 29.0177 26.6668 29.9409 25.7951 30.8607C25.7951 30.915 25.7951 30.9659 25.7951 31.0202C25.871 31.0983 25.9503 31.1798 26.0262 31.2578C26.3069 31.2714 26.5908 31.285 26.8715 31.2986C26.8979 34.0749 26.9243 36.8513 26.9474 39.6277C26.2441 39.9569 23.8701 39.7159 22.9158 39.7057C22.8894 39.665 22.863 39.6277 22.8399 39.587C22.8399 35.4563 22.8399 31.3223 22.8399 27.1917C23.8436 26.7301 25.5078 27.4463 26.5644 27.0322C31.2729 27.0525 35.9847 27.0661 40.6932 27.0763ZM33.7823 33.0363C33.7691 33.0363 33.7559 33.0363 33.7427 33.0363C33.5809 32.758 33.6139 32.1505 33.6272 31.6957C33.6668 31.6549 33.7031 31.6176 33.7427 31.5769C33.9342 31.5769 34.1257 31.5769 34.3173 31.5769C34.4559 31.8823 34.3668 32.4967 34.3569 32.9583C34.2215 33.0295 34.0201 33.0465 33.7823 33.0363ZM34.3569 34.7741C34.1522 34.7877 33.9474 34.8013 33.7427 34.8148C33.6139 34.5399 33.6106 33.7084 33.7427 33.4334C33.9342 33.4334 34.1257 33.4334 34.3173 33.4334C34.3338 33.8815 34.347 34.3261 34.3569 34.7741ZM33.6272 35.4054C33.6668 35.3511 33.7031 35.3002 33.7427 35.2459C33.921 35.2459 34.1026 35.2459 34.2809 35.2459C34.4262 35.5514 34.3701 36.0944 34.3206 36.4304C34.1158 36.444 33.9111 36.4576 33.7064 36.4712C33.5974 36.237 33.6173 35.7618 33.6272 35.4054ZM33.7427 36.9463C33.8715 36.9192 34.0003 36.892 34.1257 36.8683C34.1654 36.8819 34.2017 36.8954 34.2413 36.909C34.4427 37.0516 34.3701 37.7507 34.3569 38.0935C34.2116 38.1648 33.9904 38.1818 33.7427 38.1716C33.7163 38.1309 33.6899 38.0935 33.6668 38.0528C33.6536 37.71 33.6404 37.3672 33.6272 37.0278C33.6668 36.9972 33.7064 36.9735 33.7427 36.9463ZM33.6668 38.6841C33.8319 38.657 34.0003 38.6298 34.1654 38.6061C34.2182 38.6061 34.2677 38.6061 34.3206 38.6061C34.347 38.9489 34.3734 39.2917 34.3965 39.6311C34.3965 39.6446 34.3965 39.6582 34.3965 39.6718C34.2446 39.7465 34.0003 39.76 33.7427 39.7499C33.6338 39.5123 33.6569 39.0371 33.6668 38.6841ZM33.1682 34.7368C32.9932 34.8216 32.6828 34.825 32.3989 34.8148C32.2668 34.5297 32.313 33.9256 32.3229 33.5115C32.3625 33.4708 32.3989 33.4334 32.4385 33.3927C32.6564 33.3927 32.8743 33.3927 33.0923 33.3927C33.2243 33.688 33.1781 34.3125 33.1682 34.7368ZM33.1286 36.3931C32.9536 36.478 32.6432 36.4813 32.3592 36.4712C32.3328 36.4304 32.3064 36.3931 32.2833 36.3524C32.2833 36.0231 32.2833 35.6939 32.2833 35.3647C32.488 35.324 32.6927 35.2866 32.8974 35.2459C32.9503 35.2595 32.9998 35.273 33.0526 35.2866C33.2606 35.436 33.1781 36.1182 33.1286 36.3931ZM33.1682 32.9209C33.013 33.0024 32.63 33.0872 32.4385 32.999C32.3989 32.9854 32.3625 32.9718 32.3229 32.9583C32.2536 32.6053 32.2272 31.8654 32.3625 31.5769C32.63 31.5904 32.9007 31.604 33.1682 31.6176C33.1682 32.052 33.1682 32.4865 33.1682 32.9209ZM32.3625 36.9056C32.6069 36.9056 32.8479 36.9056 33.0923 36.9056C33.2078 37.1568 33.1781 37.6761 33.1682 38.0494C32.9866 38.1377 32.6531 38.1377 32.3625 38.1275C32.2404 37.8763 32.2371 37.1602 32.3625 36.9056ZM32.3625 38.6434C32.63 38.6434 32.9007 38.6434 33.1682 38.6434C33.1814 38.9726 33.1946 39.3018 33.2078 39.6311C33.0196 39.7227 32.663 39.7193 32.3625 39.7091C32.247 39.4749 32.247 38.8776 32.3625 38.6434ZM31.8606 32.9583C31.5932 33.0906 30.9196 33.0669 30.5927 32.999C30.4606 32.7139 30.5069 32.1097 30.5168 31.6957C30.5564 31.6414 30.5927 31.5904 30.6323 31.5361C31.0286 31.5361 31.4248 31.5361 31.8243 31.5361C31.9828 31.8857 31.8739 32.4831 31.8606 32.9583ZM31.8606 34.7741C31.6064 34.8624 31.0319 34.825 30.6687 34.8522C30.6555 34.8522 30.6422 34.8522 30.629 34.8522C30.4904 34.5501 30.5432 33.9052 30.5531 33.4708C30.847 33.4436 31.1408 33.4165 31.4347 33.3927C31.5635 33.3927 31.6922 33.3927 31.8177 33.3927C31.9828 33.7389 31.8772 34.3431 31.8606 34.7741ZM30.596 35.2086C30.9922 35.2086 31.3885 35.2086 31.788 35.2086C31.9234 35.4495 31.8772 35.9451 31.8639 36.3931C31.5998 36.5221 30.9856 36.5119 30.6356 36.5119C30.6092 36.4712 30.5828 36.4338 30.5597 36.3931C30.4441 36.1352 30.497 35.4122 30.596 35.2086ZM31.9003 38.0902C31.6427 38.2191 30.8734 38.2259 30.5564 38.1309C30.5432 37.7609 30.53 37.3944 30.5168 37.0244C30.5564 36.9701 30.5927 36.9192 30.6323 36.8649C31.0286 36.8649 31.4248 36.8649 31.8243 36.8649C31.9465 37.1364 31.9102 37.6964 31.9003 38.0902ZM30.596 38.6841C31.0187 38.6841 31.4413 38.6841 31.8639 38.6841C31.963 38.8946 31.9498 39.3052 31.9399 39.6311C31.6361 39.8076 31.1309 39.7634 30.6356 39.7499C30.6092 39.7091 30.5828 39.6718 30.5597 39.6311C30.4573 39.4037 30.5102 38.8538 30.596 38.6841ZM30.0578 32.9583C29.9158 33.0329 29.5559 33.0872 29.3677 32.999C29.1564 32.8429 29.1861 31.7839 29.2918 31.5769C29.5229 31.5769 29.754 31.5769 29.9819 31.5769C30.0083 31.6176 30.0347 31.6549 30.0578 31.6957C30.0578 32.1165 30.0578 32.5374 30.0578 32.9583ZM29.9422 34.8522C29.7243 34.8386 29.5064 34.825 29.2885 34.8114C29.2753 34.3498 29.2621 33.8916 29.2488 33.43C29.3017 33.4029 29.3512 33.3757 29.404 33.352C29.5955 33.3656 29.7871 33.3791 29.9786 33.3927C30.0809 33.5964 30.1701 34.7402 29.9422 34.8522ZM29.2521 38.7215C29.5097 38.7215 29.7639 38.7215 30.0215 38.7215C30.1172 38.9251 30.1073 39.312 30.0974 39.6277C30.0578 39.6548 30.0215 39.682 29.9819 39.7057C29.7507 39.7193 29.5196 39.7329 29.2918 39.7465C29.1894 39.5394 29.1729 38.9862 29.2521 38.7215ZM29.3281 36.8683C29.546 36.8683 29.7639 36.8683 29.9819 36.8683C30.0083 36.909 30.0347 36.9463 30.0578 36.9871C30.071 37.357 30.0842 37.7236 30.0974 38.0935C30.0446 38.1207 29.9951 38.1479 29.9422 38.1716C29.7111 38.1716 29.48 38.1716 29.2521 38.1716C29.196 37.8695 29.1993 37.1398 29.3281 36.8683ZM30.0578 36.4338C29.8927 36.5153 29.6021 36.5221 29.3281 36.5119C29.1597 36.1487 29.2455 35.3274 29.3677 35.0117C30.2658 35.2629 30.1503 35.2527 30.0578 36.4338ZM28.2154 38.6841C28.3804 38.6841 28.5488 38.6841 28.7139 38.6841C28.813 38.8946 28.7998 39.3052 28.7899 39.6311C28.7371 39.6582 28.6875 39.6854 28.6347 39.7091C28.5191 39.7227 28.4036 39.7363 28.288 39.7499C28.2616 39.7091 28.2352 39.6718 28.2121 39.6311C28.2154 39.3154 28.2154 38.9998 28.2154 38.6841ZM28.1757 33.3927C28.2154 33.3384 28.2517 33.2875 28.2913 33.2332C28.4201 33.2603 28.5488 33.2875 28.6743 33.3113C28.7007 33.3384 28.7271 33.3656 28.7503 33.3893C28.7503 34.9947 28.7503 36.6001 28.7503 38.2056C28.6974 38.2327 28.6479 38.2599 28.5951 38.2836C28.4795 38.2972 28.3639 38.3108 28.2484 38.3243C27.9611 37.6659 28.1691 34.4008 28.1757 33.3927ZM28.7503 32.999C28.5885 33.0872 28.4597 33.1212 28.2517 33.0771C28.1097 32.775 28.1097 31.7975 28.2517 31.4988C28.4069 31.5124 28.5588 31.526 28.7139 31.5395C28.8757 31.8925 28.7701 32.5646 28.7503 32.999ZM78.8631 37.8526C77.6711 38.5382 75.4126 37.8152 74.1414 37.6557C72.3683 37.4317 71.0211 38.2157 69.5319 38.4839C68.3168 38.7045 67.5904 38.1037 66.5767 38.0902C66.5767 38.0766 66.5767 38.063 66.5767 38.0494C67.0753 37.8118 67.5739 37.5742 68.0758 37.3401C69.073 36.7189 69.8225 35.7686 70.9551 35.2866C71.3975 35.0999 71.9588 35.1644 72.4541 34.971C74.9867 35.049 76.6343 37.116 78.8301 37.693C78.8433 37.7338 78.8565 37.7711 78.8697 37.8118C78.8631 37.8288 78.8631 37.839 78.8631 37.8526ZM80.2466 32.9583C79.9857 34.1903 79.9725 35.8195 79.4013 36.8275C79.0414 37.3197 76.5353 35.979 76.1753 35.7618C72.9362 33.8102 71.239 33.8815 68.264 36.0774C67.1083 35.4767 66.1343 34.8522 64.348 34.8929C64.1102 34.4109 64.272 33.1891 64.272 32.4458C64.2588 30.6028 64.2456 28.7632 64.2324 26.9202C64.8366 26.6249 66.9862 26.7912 67.9569 26.8014C67.9834 26.7369 68.0098 26.669 68.0329 26.6045C67.3164 25.1824 65.9494 24.0488 64.9984 22.8167C62.8225 20.1455 60.6465 17.4744 58.4706 14.8032C57.4866 13.6051 56.4994 12.407 55.5154 11.2123C55.1423 10.7235 54.7725 9.99717 54.2475 9.67134C48.6409 10.0922 43.0342 10.5131 37.4276 10.9339C37.0974 9.97002 37.6092 10.0379 37.7347 9.63061C37.6951 9.31496 37.6588 8.99931 37.6191 8.68365C37.4574 8.60898 32.4154 8.5411 32.1677 8.64293C31.6064 9.0027 32.2305 9.79692 32.2833 10.0651C32.2701 10.435 32.2569 10.8016 32.2437 11.1715C32.204 11.1987 32.1677 11.2258 32.1281 11.2496C31.4743 11.3039 30.8238 11.3548 30.1701 11.4091C28.8889 12.9738 27.6111 14.5419 26.33 16.1066C24.3257 18.7132 22.0969 21.1468 20.0696 23.7636C19.3035 24.7513 18.2238 25.6033 17.613 26.7233C17.6262 26.7878 17.6394 26.8557 17.6526 26.9202C18.7422 27.3173 20.6375 26.6079 21.7238 27.039C21.9715 27.2392 21.8394 28.271 21.8394 28.6953C21.8262 30.5111 21.813 32.327 21.7998 34.1428C21.5785 34.4313 20.5219 34.0749 19.9936 34.1835C19.3168 34.3227 18.6201 34.4754 18.0356 34.7368C17.3884 35.0253 16.7776 35.6803 15.962 35.7245C13.6243 34.0342 11.0323 33.9052 8.16626 35.1339C7.63796 34.6316 7.56862 31.5871 7.39692 30.5552C6.60116 25.7085 7.61484 19.8638 8.70777 16.1846C12.3564 3.8844 20.5583 -4.18338 31.8243 -8.68396C34.1753 -9.62413 36.8201 -10.0178 39.5805 -10.5405C40.9375 -10.6322 42.2946 -10.7238 43.6517 -10.8155C61.9607 -10.7883 74.6895 1.23699 79.0942 15.7094C80.481 20.2677 81.4419 27.3139 80.2466 32.9583Z" fill="white"/>
</g>
</svg>
